<?xml version="1.0" encoding="UTF-8" standalone="no"?>
<svg
   version="1.1"
   width="48"
   height="48"
   x="0"
   y="0"
   viewBox="0 0 48 48"
   xml:space="preserve"
   class=""
   id="svg844"
   sodipodi:docname="pomodoro.svg"
   inkscape:version="1.1.1 (c3084ef, 2021-09-22)"
   xmlns:inkscape="http://www.inkscape.org/namespaces/inkscape"
   xmlns:sodipodi="http://sodipodi.sourceforge.net/DTD/sodipodi-0.dtd"
   xmlns="http://www.w3.org/2000/svg"
   xmlns:svg="http://www.w3.org/2000/svg"><defs
     id="defs848" /><sodipodi:namedview
     id="namedview846"
     pagecolor="#ffffff"
     bordercolor="#999999"
     borderopacity="1"
     inkscape:pageshadow="0"
     inkscape:pageopacity="0"
     inkscape:pagecheckerboard="0"
     showgrid="false"
     inkscape:zoom="0.61035156"
     inkscape:cx="170.3936"
     inkscape:cy="163.84"
     inkscape:window-width="1465"
     inkscape:window-height="966"
     inkscape:window-x="0"
     inkscape:window-y="25"
     inkscape:window-maximized="0"
     inkscape:current-layer="svg844" /><g
     id="g842"
     transform="matrix(0.09374998,0,0,0.09374998,-1.4060334e-4,0)"
     style="stroke-width:10.6667"><g
       id="g840"
       style="stroke-width:10.6667"><path
         d="M 255.831,52.469 C 252.995,47.54 249.675,42.769 245.778,38.287 213.104,0.701 154.819,0.011 152.353,0 c -7.732,0 -13.938,5.678 -14.931,12.979 -0.332,2.442 -7.759,60.251 24.916,97.836 32.207,37.048 89.391,38.301 93.662,38.292 -0.035,0 -0.061,-0.004 -0.104,-0.004 0.026,0 0.066,0.004 0.104,0.004 L 266.001,103.412 256,52.19 c -0.054,0.094 -0.115,0.185 -0.169,0.279 z"
         fill="#00ddc3"
         data-original="#00ddc3"
         class=""
         id="path824"
         style="stroke-width:30.1037" /><path
         d="M 374.239,12.979 C 373.245,5.676 367.037,0 359.308,0 356.842,0.011 298.558,0.701 265.882,38.288 262.061,42.684 258.8,47.362 256,52.191 v 96.912 c 3.576,-0.029 60.985,-1.09 93.322,-38.287 32.676,-37.586 25.249,-95.395 24.917,-97.837 z"
         fill="#00c1ae"
         data-original="#00c1ae"
         id="path826"
         style="stroke-width:30.1037" /><path
         d="M 24.01,164.5 C 4.055,197.84 -1.553,233.2 0.348,271 L 16.004,285.928 3.409,301 C 22.345,423.166 117.122,512 256,512 l 10.001,-34.856 V 149.103 L 256,117.91 C 171.56,64.015 69.932,87.744 24.01,164.5 Z"
         fill="#ff667a"
         data-original="#ff667a"
         class=""
         id="path828"
         style="stroke-width:30.1037" /><path
         d="M 488,164.5 C 442.741,88.831 341.61,63.311 256,117.91 V 512 c 138.204,0 233.529,-88.024 252.592,-211 L 496.554,285.176 511.652,271 C 513.557,233.122 507.91,197.785 488,164.5 Z"
         fill="#ff4471"
         data-original="#ff4471"
         class=""
         id="path830"
         style="stroke-width:30.1037" /><path
         d="m 256,204.757 -5.216,-5.202 c -5.858,-5.858 -15.357,-5.857 -21.215,0 -5.859,5.858 -5.859,15.355 0,21.213 l 15.817,15.816 c 2.813,2.813 6.628,4.394 10.607,4.394 l 10.008,-20.231 z"
         fill="#ea315a"
         data-original="#ea315a"
         id="path832"
         style="stroke-width:30.1037" /><path
         d="m 282.431,199.542 c -5.858,-5.858 -15.357,-5.858 -21.215,0 L 256,204.757 v 36.22 c 3.976,-0.002 7.789,-1.582 10.6,-4.393 l 15.83,-15.829 c 5.86,-5.859 5.86,-15.356 10e-4,-21.213 z"
         fill="#d22048"
         data-original="#d22048"
         class=""
         id="path834"
         style="stroke-width:30.1037" /><path
         d="m 0.348,271 c 0.51,10.16 1.53,20.17 3.06,30 h 88.108 v 45 c 0,8.28 6.721,15 15.001,15 8.291,0 15.001,-6.72 15.001,-15 v -45 h 44.904 v 15 c 0,8.28 6.721,15 15.001,15 8.291,0 15.001,-6.72 15.001,-15 v -15 h 44.574 v 45 c 0,8.28 6.721,15 15.001,15 L 265,347.393 V 280.965 L 256,271 Z"
         fill="#ea315a"
         data-original="#ea315a"
         id="path836"
         style="stroke-width:30.1037" /><path
         d="m 256,271 v 90 c 8.281,0 15.001,-6.72 15.001,-15 v -45 h 45.004 v 15 c 0,8.28 6.721,15 15.001,15 8.281,0 15.001,-6.72 15.001,-15 v -15 h 44.954 v 45 c 0,8.28 6.721,15 15.001,15 8.281,0 15.001,-6.72 15.001,-15 v -45 h 87.628 c 1.53,-9.83 2.55,-19.84 3.06,-30 z"
         fill="#d22048"
         data-original="#d22048"
         class=""
         id="path838"
         style="stroke-width:30.1037" /></g></g></svg>
